<svg width="114" height="119" viewBox="0 0 114 119" fill="none" xmlns="http://www.w3.org/2000/svg">
<g clip-path="url(#clip0_742_637)" filter="url(#filter0_d_742_637)">
<path d="M106.771 41.2577C108.107 48.9755 99.9111 46.9199 99.9111 46.9199C96.4811 37.2546 90.9929 38.1562 90.9929 38.1562C95.2896 41.2938 95.6145 43.9626 95.6145 43.9626C84.1688 35.8481 68.6071 42.3757 62.6857 45.4412C59.3639 40.7528 52.6481 30.2581 55.0311 25.4976C58.1724 19.2584 64.5632 22.8288 64.5632 22.8288C77.4892 22.6124 76.7671 17.9962 76.7671 17.9962C73.337 20.6649 63.2273 17.9962 63.2273 17.9962C72.0011 17.9962 75.72 14.4258 75.72 14.4258C69.1848 16.0487 61.8913 9.08827 61.8913 9.08827C59.2195 -4.58015 46.8711 1.22622 46.8711 1.22622C54.5979 -0.108159 52.5398 8.07846 52.5398 8.07846C42.8634 11.5046 43.766 16.9864 43.766 16.9864C46.9073 12.6947 49.5791 12.3701 49.5791 12.3701C40.7331 24.8124 49.2542 42.1233 51.7816 46.6313C47.16 49.8411 36.3281 56.9097 31.4538 54.4573C25.2074 51.3197 28.7819 44.9363 28.7819 44.9363C28.6375 32.0252 24.0159 32.7465 24.0159 32.7465C26.6878 36.1727 24.0159 46.2707 24.0159 46.2707C24.0159 37.507 20.4414 33.7924 20.4414 33.7924C22.0662 40.3201 15.0977 47.6051 15.0977 47.6051C1.41345 50.2738 7.22654 62.6079 7.22654 62.6079C5.89062 54.8901 14.0867 56.9458 14.0867 56.9458C17.5168 66.611 23.005 65.7094 23.005 65.7094C18.7083 62.5718 18.3834 59.903 18.3834 59.903C30.4789 68.4864 47.1961 60.6965 52.251 57.9556C55.645 62.8243 61.9635 72.8502 59.6166 77.5025C56.4754 83.7416 50.0846 80.1712 50.0846 80.1712C37.1586 80.3155 37.8807 84.9318 37.8807 84.9318C41.3108 82.263 51.4205 84.9318 51.4205 84.9318C42.6467 84.9318 38.9278 88.5021 38.9278 88.5021C45.463 86.8792 52.7565 93.8397 52.7565 93.8397C55.4283 107.508 67.7766 101.702 67.7766 101.702C60.0499 103.036 62.108 94.8495 62.108 94.8495C71.7844 91.4233 70.8818 85.9416 70.8818 85.9416C67.7405 90.2332 65.0687 90.5578 65.0687 90.5578C73.7342 78.4041 65.7547 61.562 63.0467 56.6212C67.9572 53.1951 77.8864 47.0641 82.4719 49.3722C88.7182 52.5098 85.1437 58.8932 85.1437 58.8932C85.2881 71.8043 89.9097 71.083 89.9097 71.083C87.2379 67.6569 89.9097 57.5589 89.9097 57.5589C89.9097 66.3225 93.4842 70.0371 93.4842 70.0371C91.8595 63.5095 98.828 56.2245 98.828 56.2245C112.584 53.5918 106.771 41.2577 106.771 41.2577Z" fill="url(#paint0_linear_742_637)"/>
</g>
<defs>
<filter id="filter0_d_742_637" x="0" y="0" width="114" height="119" filterUnits="userSpaceOnUse" color-interpolation-filters="sRGB">
<feFlood flood-opacity="0" result="BackgroundImageFix"/>
<feColorMatrix in="SourceAlpha" type="matrix" values="0 0 0 0 0 0 0 0 0 0 0 0 0 0 0 0 0 0 127 0" result="hardAlpha"/>
<feOffset dy="10"/>
<feGaussianBlur stdDeviation="3"/>
<feComposite in2="hardAlpha" operator="out"/>
<feColorMatrix type="matrix" values="0 0 0 0 0 0 0 0 0 0 0 0 0 0 0 0 0 0 0.25 0"/>
<feBlend mode="normal" in2="BackgroundImageFix" result="effect1_dropShadow_742_637"/>
<feBlend mode="normal" in="SourceGraphic" in2="effect1_dropShadow_742_637" result="shape"/>
</filter>
<linearGradient id="paint0_linear_742_637" x1="56.9955" y1="0.00109863" x2="56.9955" y2="102.927" gradientUnits="userSpaceOnUse">
<stop stop-color="#AB9DE8"/>
<stop offset="1" stop-color="#261575"/>
</linearGradient>
<clipPath id="clip0_742_637">
<rect width="102" height="103" fill="white" transform="translate(6)"/>
</clipPath>
</defs>
</svg>
